<svg xmlns="http://www.w3.org/2000/svg" enable-background="new 0 0 68 68" viewBox="0 0 68 68" id="Scanner">
  <path d="M56.4120827,50.9844017l-6.3373985-17.035202c-0.1454887-0.3916016-0.519001-0.6514015-0.9370003-0.6514015H18.8432846
		c-0.4180012,0-0.7919998,0.2598-0.9375,0.6519012l-6.395587,17.2099991
		c-0.1137133,0.3066025-0.0703135,0.6499023,0.1162872,0.9189034c0.1869993,0.2689972,0.4935999,0.4291992,0.8211994,0.4291992
		h43.0922966c0.0074005-0.0004997,0.0132141-0.0004997,0.0200996,0c0.5522003,0,1-0.4477997,1-1
		C56.5600815,51.3158989,56.5058823,51.1366997,56.4120827,50.9844017z M13.8861971,50.5078011l5.6523867-15.2100029h28.9042988
		l5.6581993,15.2100029H13.8861971z" fill="#234efa" class="color000000 svgShape"></path>
  <path d="M4.9815845,55.9766998c-0.0002999,0.0105019-0.006,0.0191002-0.006,0.0296021v5.990799
		C4.9755845,64.7557983,7.2196846,67,9.9784842,67h48.0347137c2.7587852,0,5.0028839-2.2442017,5.0028839-5.0028992v-5.8978996
		c0.0214005-0.2231026,0.0093002-0.3899002-0.1293983-0.615303l-9.5358009-25.6339989l8.6633148-27.5500984
		c0.0951843-0.3037,0.0404854-0.6348-0.1480026-0.8915999C61.6776848,1.1518,61.3783836,1,61.0600815,1H6.9315844
		c-0.3182998,0-0.6176,0.1518-0.8060999,0.4082C5.9369845,1.665,5.8822846,1.9960999,5.9774847,2.2997999l8.6578999,27.5313988
		l-9.5983,25.8279991C4.9987845,55.7622986,4.9847846,55.8694992,4.9815845,55.9766998z M8.294385,3h51.4029007
		l-8.1114006,25.7949009H16.4061966L8.294385,3z M16.4100838,30.7973995h35.1596985l9.0055008,24.2089024H7.4133844
		L16.4100838,30.7973995z M6.9755845,57.0073013h54.0404968v2.9960976h-4.1615982c-0.5522881,0-1,0.4477997-1,1
		c0,0.5522995,0.4477119,1,1,1h4.1609001C61.0118828,63.6561012,59.6666832,65,58.0131989,65H9.9784842
		c-1.6535997,0-2.9986997-1.3438988-3.0021996-2.9966011h4.1614003c0.5521994,0,1-0.4477005,1-1c0-0.5522003-0.4478006-1-1-1
		H6.9755845V57.0073013z" fill="#234efa" class="color000000 svgShape"></path>
  <path d="M17.6727848 64.0034027c1.6542988 0 3-1.3457031 3-3.0000038s-1.3457012-3-3-3c-1.6543007 0-3 1.3456993-3 3S16.0184841 64.0034027 17.6727848 64.0034027zM17.6727848 60.0033989c.5513 0 1 .4487 1 1s-.4487 1-1 1c-.5512009 0-1-.4487-1-1S17.1215839 60.0033989 17.6727848 60.0033989zM25.1903839 64.0034027c1.6543007 0 3-1.3457031 3-3.0000038s-1.3456993-3-3-3-3 1.3456993-3 3S23.5360832 64.0034027 25.1903839 64.0034027zM25.1903839 60.0033989c.5513 0 1 .4487 1 1s-.4487 1-1 1c-.5511875 0-1-.4487-1-1S24.6391964 60.0033989 25.1903839 60.0033989z" fill="#234efa" class="color000000 svgShape"></path>
</svg>
